<svg width="368" height="174" viewBox="0 0 368 174" fill="none" xmlns="http://www.w3.org/2000/svg">
<path d="M368 1L287 87" stroke="#1B1B1B"/>
<path d="M368 61L287 147" stroke="#1B1B1B"/>
<path d="M368 31L287 117" stroke="#1B1B1B"/>
<path d="M368 91L290 173.5" stroke="#1B1B1B"/>
<path d="M368 13L287 99" stroke="#1B1B1B"/>
<path d="M368 73L287 159" stroke="#1B1B1B"/>
<path d="M368 43L287 129" stroke="#1B1B1B"/>
<path d="M368 103L301.5 173.5" stroke="#1B1B1B"/>
<path d="M368 10L287 96" stroke="#1B1B1B"/>
<path d="M368 70L287 156" stroke="#1B1B1B"/>
<path d="M368 40L287 126" stroke="#1B1B1B"/>
<path d="M368 100L298.5 173.5" stroke="#1B1B1B"/>
<path d="M368 22L287 108" stroke="#1B1B1B"/>
<path d="M368 82L287 168" stroke="#1B1B1B"/>
<path d="M368 52L287 138" stroke="#1B1B1B"/>
<path d="M368 112L327.5 155L310 173.5" stroke="#1B1B1B"/>
<path d="M368 127L327.5 170L324 173.5" stroke="#1B1B1B"/>
<path d="M368 147L343 173.5" stroke="#1B1B1B"/>
<path d="M368 165L359.5 173.5" stroke="#1B1B1B"/>
<path d="M368 4L287 90" stroke="#1B1B1B"/>
<path d="M368 64L287 150" stroke="#1B1B1B"/>
<path d="M368 34L287 120" stroke="#1B1B1B"/>
<path d="M368 94L293 173.5" stroke="#1B1B1B"/>
<path d="M368 16L287 102" stroke="#1B1B1B"/>
<path d="M368 76L287 162" stroke="#1B1B1B"/>
<path d="M368 46L287 132" stroke="#1B1B1B"/>
<path d="M368 106L304 173.5" stroke="#1B1B1B"/>
<path d="M368 121L318 173.5" stroke="#1B1B1B"/>
<path d="M368 141L337 173.5" stroke="#1B1B1B"/>
<path d="M368 159L354 173.5" stroke="#1B1B1B"/>
<path d="M368 25L287 111" stroke="#1B1B1B"/>
<path d="M368 85L287 171" stroke="#1B1B1B"/>
<path d="M368 55L287 141" stroke="#1B1B1B"/>
<path d="M368 115L327.5 158L317.375 168.75L313 173.5" stroke="#1B1B1B"/>
<path d="M368 135L332 173.5" stroke="#1B1B1B"/>
<path d="M368 130L327 173.5" stroke="#1B1B1B"/>
<path d="M368 150L346 173.5" stroke="#1B1B1B"/>
<path d="M368 168L362.5 173.5" stroke="#1B1B1B"/>
<path d="M368 7L287 93" stroke="#1B1B1B"/>
<path d="M368 67L287 153" stroke="#1B1B1B"/>
<path d="M368 37L287 123" stroke="#1B1B1B"/>
<path d="M368 97L295.5 173.5" stroke="#1B1B1B"/>
<path d="M368 19L287 105" stroke="#1B1B1B"/>
<path d="M368 79L287 165" stroke="#1B1B1B"/>
<path d="M368 49L287 135" stroke="#1B1B1B"/>
<path d="M368 109L307 173.5" stroke="#1B1B1B"/>
<path d="M368 124L321 173.5" stroke="#1B1B1B"/>
<path d="M368 144L340 173.5" stroke="#1B1B1B"/>
<path d="M368 162L356.5 173.5" stroke="#1B1B1B"/>
<path d="M368 16L287 102" stroke="#1B1B1B"/>
<path d="M368 76L287 162" stroke="#1B1B1B"/>
<path d="M368 28L287 114" stroke="#1B1B1B"/>
<path d="M368 88L287.5 173.5" stroke="#1B1B1B"/>
<path d="M368 58L287 144" stroke="#1B1B1B"/>
<path d="M368 117.5L327.5 160.5L317.375 171.25L315.5 173.5" stroke="#1B1B1B"/>
<path d="M368 137.5L334.5 173.5" stroke="#1B1B1B"/>
<path d="M368 155.5L351.25 173.5" stroke="#1B1B1B"/>
<path d="M368 132.5L329.5 173.5" stroke="#1B1B1B"/>
<path d="M368 152.5L348.5 173.5" stroke="#1B1B1B"/>
<path d="M368 170.5L365 173.5" stroke="#1B1B1B"/>
<path d="M287 87L191.5 68" stroke="#1B1B1B"/>
<path d="M287 117L191.5 98" stroke="#1B1B1B"/>
<path d="M287 99L191.5 80" stroke="#1B1B1B"/>
<path d="M287 129L191.5 110" stroke="#1B1B1B"/>
<path d="M287 99L191.5 80" stroke="#1B1B1B"/>
<path d="M287 129L191.5 110" stroke="#1B1B1B"/>
<path d="M287 96L191.5 77" stroke="#1B1B1B"/>
<path d="M287 126L191.5 107" stroke="#1B1B1B"/>
<path d="M287 96L191.5 77" stroke="#1B1B1B"/>
<path d="M287 108L191.5 89" stroke="#1B1B1B"/>
<path d="M287 138L191.5 119" stroke="#1B1B1B"/>
<path d="M287 153L191.5 134" stroke="#1B1B1B"/>
<path d="M287 108L191.5 89" stroke="#1B1B1B"/>
<path d="M287 90L191.5 71" stroke="#1B1B1B"/>
<path d="M287 120L191.5 101" stroke="#1B1B1B"/>
<path d="M287 102L191.5 83" stroke="#1B1B1B"/>
<path d="M287 132L191.5 113" stroke="#1B1B1B"/>
<path d="M287 102L191.5 83" stroke="#1B1B1B"/>
<path d="M287 99L191.5 80" stroke="#1B1B1B"/>
<path d="M287 129L191.5 110" stroke="#1B1B1B"/>
<path d="M287 99L191.5 80" stroke="#1B1B1B"/>
<path d="M287 111L191.5 92" stroke="#1B1B1B"/>
<path d="M287 141L191.5 122" stroke="#1B1B1B"/>
<path d="M287 156L191.5 137" stroke="#1B1B1B"/>
<path d="M287 165L191.5 146" stroke="#1B1B1B"/>
<path d="M191.5 158L239.25 167.5L263.125 172.25L269.094 173.438" stroke="#1B1B1B"/>
<path d="M287 111L191.5 92" stroke="#1B1B1B"/>
<path d="M287 93L191.5 74" stroke="#1B1B1B"/>
<path d="M287 123L191.5 104" stroke="#1B1B1B"/>
<path d="M287 105L191.5 86" stroke="#1B1B1B"/>
<path d="M287 135L191.5 116" stroke="#1B1B1B"/>
<path d="M287 150L191.5 131" stroke="#1B1B1B"/>
<path d="M287 105L191.5 86" stroke="#1B1B1B"/>
<path d="M287 114L191.5 95" stroke="#1B1B1B"/>
<path d="M287 144L191.5 125" stroke="#1B1B1B"/>
<path d="M287 159L191.5 140" stroke="#1B1B1B"/>
<path d="M287 168L191.5 149" stroke="#1B1B1B"/>
<path d="M191.5 161L239.25 170.5L251.188 172.875L255.5 173.5" stroke="#1B1B1B"/>
<path d="M191.5 167L215.375 171.75L225.5 173.5" stroke="#1B1B1B"/>
<path d="M287 147L191.5 128" stroke="#1B1B1B"/>
<path d="M287 162L191.5 143" stroke="#1B1B1B"/>
<path d="M286 173.5L191.5 155" stroke="#1B1B1B"/>
<path d="M287 171L191.5 152" stroke="#1B1B1B"/>
<path d="M191.5 164L239.25 173.5" stroke="#1B1B1B"/>
<path d="M191.5 170L212 173.5" stroke="#1B1B1B"/>
<path d="M287 114L191.5 95" stroke="#1B1B1B"/>
<path d="M191.5 68L123 165.5" stroke="#1B1B1B"/>
<path d="M191.5 128L159.5 173.5" stroke="#1B1B1B"/>
<path d="M191.5 98L138 173.5" stroke="#1B1B1B"/>
<path d="M191.5 158L180.5 173.5" stroke="#1B1B1B"/>
<path d="M191.5 68L123 165.5" stroke="#1B1B1B"/>
<path d="M191.5 80L125.5 173.5" stroke="#1B1B1B"/>
<path d="M191.5 140L168 173.5" stroke="#1B1B1B"/>
<path d="M191.5 110L146.5 173.5" stroke="#1B1B1B"/>
<path d="M191.5 170L189 173.5" stroke="#1B1B1B"/>
<path d="M191.5 80L125.5 173.5" stroke="#1B1B1B"/>
<path d="M191.5 83L127.5 173.5" stroke="#1B1B1B"/>
<path d="M191.5 143L170 173.5" stroke="#1B1B1B"/>
<path d="M191.5 113L148.5 173.5" stroke="#1B1B1B"/>
<path d="M191.5 83L127.5 173.5" stroke="#1B1B1B"/>
<path d="M191.5 77L123.5 173.5" stroke="#1B1B1B"/>
<path d="M191.5 137L165.5 173.5" stroke="#1B1B1B"/>
<path d="M191.5 107L144.5 173.5" stroke="#1B1B1B"/>
<path d="M191.5 167L186.5 173.5" stroke="#1B1B1B"/>
<path d="M191.5 77L123.5 173.5" stroke="#1B1B1B"/>
<path d="M191.5 89L131.5 173.5" stroke="#1B1B1B"/>
<path d="M191.5 149L174 173.5" stroke="#1B1B1B"/>
<path d="M191.5 119L152.5 173.5" stroke="#1B1B1B"/>
<path d="M191.5 89L131.5 173.5" stroke="#1B1B1B"/>
<path d="M191.5 71L123 168.5" stroke="#1B1B1B"/>
<path d="M191.5 131L161.5 173.5" stroke="#1B1B1B"/>
<path d="M191.5 101L140.5 173.5" stroke="#1B1B1B"/>
<path d="M191.5 161L182.5 173.5" stroke="#1B1B1B"/>
<path d="M191.5 71L123 168.5" stroke="#1B1B1B"/>
<path d="M191.5 92L133.5 173.5" stroke="#1B1B1B"/>
<path d="M191.5 152L176 173.5" stroke="#1B1B1B"/>
<path d="M191.5 122L154.5 173.5" stroke="#1B1B1B"/>
<path d="M191.5 92L133.5 173.5" stroke="#1B1B1B"/>
<path d="M191.5 74L123 171.5" stroke="#1B1B1B"/>
<path d="M191.5 134L163.5 173.5" stroke="#1B1B1B"/>
<path d="M191.5 104L142.5 173.5" stroke="#1B1B1B"/>
<path d="M191.5 164L184.5 173.5" stroke="#1B1B1B"/>
<path d="M191.5 74L123 171.5" stroke="#1B1B1B"/>
<path d="M191.5 86L129.5 173.5" stroke="#1B1B1B"/>
<path d="M191.5 146L172 173.5" stroke="#1B1B1B"/>
<path d="M191.5 116L150.5 173.5" stroke="#1B1B1B"/>
<path d="M191.5 86L129.5 173.5" stroke="#1B1B1B"/>
<path d="M191.5 95L135.5 173.5" stroke="#1B1B1B"/>
<path d="M191.5 155L178 173.5" stroke="#1B1B1B"/>
<path d="M191.5 125L157 173.5" stroke="#1B1B1B"/>
<path d="M191.5 95L135.5 173.5" stroke="#1B1B1B"/>
<path d="M123 165.5L48 112.5" stroke="#1B1B1B"/>
<path d="M91.5 173.5L48 142.5" stroke="#1B1B1B"/>
<path d="M118 173.5L48 124.5" stroke="#1B1B1B"/>
<path d="M48 154.5L75 173.5" stroke="#1B1B1B"/>
<path d="M122 173.5L48 121.5" stroke="#1B1B1B"/>
<path d="M48 151.5L79 173.5" stroke="#1B1B1B"/>
<path d="M105 173.5L48 133.5" stroke="#1B1B1B"/>
<path d="M62 173.5L48 163.5" stroke="#1B1B1B"/>
<path d="M123 168.5L48 115.5" stroke="#1B1B1B"/>
<path d="M88 173.5L48 145.5" stroke="#1B1B1B"/>
<path d="M100.5 173.5L48 136.5" stroke="#1B1B1B"/>
<path d="M48 166.5L57.5 173.5" stroke="#1B1B1B"/>
<path d="M123 171.5L48 118.5" stroke="#1B1B1B"/>
<path d="M48 148.5L83.5 173.5" stroke="#1B1B1B"/>
<path d="M109 173.5L48 130.5" stroke="#1B1B1B"/>
<path d="M66.5 173.5L48 160.5" stroke="#1B1B1B"/>
<path d="M113.5 173.5L104.25 167.25L85.5 154L48 127.5" stroke="#1B1B1B"/>
<path d="M48 157.5L70.5 173.5" stroke="#1B1B1B"/>
<path d="M96.5 173.5L85.5 166L48 139.5" stroke="#1B1B1B"/>
<path d="M48 169.5L53.5 173.5" stroke="#1B1B1B"/>
<path d="M48 112.5L1 173.5" stroke="#1B1B1B"/>
<path d="M48 142.5L24 173.5" stroke="#1B1B1B"/>
<path d="M48 121.5L8 173.5" stroke="#1B1B1B"/>
<path d="M48 151.5L31 173.5" stroke="#1B1B1B"/>
<path d="M48 133.5L17 173.5" stroke="#1B1B1B"/>
<path d="M48 163.5L40 173.5" stroke="#1B1B1B"/>
<path d="M48 115.5L3.5 173.5" stroke="#1B1B1B"/>
<path d="M48 145.5L26.5 173.5" stroke="#1B1B1B"/>
<path d="M48 124.5L10 173.5" stroke="#1B1B1B"/>
<path d="M48 154.5L33.5 173.5" stroke="#1B1B1B"/>
<path d="M48 136.5L19.5 173.5" stroke="#1B1B1B"/>
<path d="M48 166.5L42.5 173.5" stroke="#1B1B1B"/>
<path d="M48 118.5L5.5 173.5" stroke="#1B1B1B"/>
<path d="M48 148.5L28.5 173.5" stroke="#1B1B1B"/>
<path d="M48 130.5L15 173.5" stroke="#1B1B1B"/>
<path d="M48 160.5L38 173.5" stroke="#1B1B1B"/>
<path d="M48 127.5L12.5 173.5" stroke="#1B1B1B"/>
<path d="M48 157.5L35.5 173.5" stroke="#1B1B1B"/>
<path d="M48 139.5L21.5 173.5" stroke="#1B1B1B"/>
<path d="M48 169.5L45 173.5" stroke="#1B1B1B"/>
</svg>
